<svg xmlns="http://www.w3.org/2000/svg" viewBox="0 0 123.7 72.39">
  <defs>
    <style>
      .cls-1 {
        isolation: isolate;
      }

      .cls-2 {
        fill: #1e1e1e;
      }

      .cls-3 {
        fill: #faa31b;
      }

      .cls-4 {
        fill: #fec261;
      }

      .cls-5 {
        fill: #c87d29;
      }

      .cls-6 {
        fill: #d7d6d6;
      }

      .cls-7, .cls-8 {
        fill: #fff;
      }

      .cls-8 {
        mix-blend-mode: hard-light;
      }
    </style>
  </defs>
  <title>ui-preview-svg</title>
  <g class="cls-1">
    <g id="Layer_1" data-name="Layer 1">
      <rect id="ColumnBG" class="cls-2" width="123.7" height="72.39" rx="12"/>
      <rect id="ActiveItem" class="cls-3" y="48.56" width="123.7" height="8.91"/>
      <rect id="HoverItem" class="cls-4" y="16.53" width="123.7" height="8.91"/>
      <circle id="ActivePresence" class="cls-3" cx="13.67" cy="42.62" r="2.27"/>
      <rect id="MentionBadge" class="cls-5" x="96.42" y="28.73" width="14.4" height="6.77" rx="3.39"/>
      <g id="TextColor">
        <rect class="cls-6" x="11.34" y="8.92" width="50.51" height="4.55" rx="2.27"/>
        <rect class="cls-6" x="22.14" y="40.34" width="57.98" height="4.55" rx="2.27"/>
        <rect class="cls-6" x="22.14" y="62.36" width="57.98" height="4.55" rx="2.27"/>
        <path class="cls-6" d="M16,64.91l-.14,1h-.83l-.23,1.48H13.74L14,65.86h-.69l-.24,1.48H12l.24-1.48h-.83l.15-1h.82l.11-.67h-.82l.15-.95h.82l.22-1.37h1.07l-.22,1.37h.69l.22-1.37h1.08l-.22,1.37h.81l-.14.95h-.82l-.1.67Zm-1.8-.67h-.69l-.11.67h.7Z"/>
        <rect class="cls-6" x="22.14" y="18.77" width="57.98" height="4.55" rx="2.27"/>
        <path class="cls-6" d="M16,21.32l-.14.95h-.83l-.23,1.49H13.74L14,22.27h-.69l-.24,1.49H12l.24-1.49h-.83l.15-.95h.82l.11-.67h-.82l.15-.94h.82l.22-1.38h1.07l-.22,1.38h.69l.22-1.38h1.08l-.22,1.38h.81l-.14.94h-.82l-.1.67Zm-1.8-.67h-.69l-.11.67h.7Z"/>
        <path class="cls-6" d="M16,32.11l-.14,1h-.83l-.23,1.48H13.74L14,33.06h-.69l-.24,1.48H12l.24-1.48h-.83l.15-1h.82l.11-.67h-.82l.15-1h.82l.22-1.37h1.07l-.22,1.37h.69l.22-1.37h1.08l-.22,1.37h.81l-.14,1h-.82l-.1.67Zm-1.8-.67h-.69l-.11.67h.7Z"/>
      </g>
      <g id="ActiveItemText">
        <g id="ActiveItemText-2" data-name="ActiveItemText">
          <rect class="cls-7" x="22.14" y="51.13" width="57.98" height="4.55" rx="2.27"/>
          <path class="cls-7" d="M16,53.69l-.14,1h-.83l-.23,1.48H13.74L14,54.64h-.69l-.24,1.48H12l.24-1.48h-.83l.15-1h.82l.11-.68h-.82l.15-.94h.82l.22-1.38h1.07l-.22,1.38h.69l.22-1.38h1.08l-.22,1.38h.81l-.14.94h-.82l-.1.68ZM14.23,53h-.69l-.11.68h.7Z"/>
        </g>
        <rect id="Active" class="cls-8" x="22.14" y="29.5" width="57.98" height="4.55" rx="2.27"/>
      </g>
    </g>
  </g>
</svg>
