<svg id="Layer_1" data-name="Layer 1" xmlns="http://www.w3.org/2000/svg" viewBox="0 0 111.7 81.39">
  <defs>
    <style>
      .cls-1 {
        fill: #2e2e2e;
      }

      .cls-2 {
        fill: #231f20;
      }

      .cls-3 {
        fill: #d7d6d6;
      }

      .cls-4 {
        fill: #ca7d29;
      }

      .cls-5 {
        fill: #fff;
      }

      .cls-6 {
        fill: #faa31b;
      }

      .cls-7 {
        fill: #55442a;
      }

      .cls-8 {
        fill: #d0202f;
      }
    </style>
  </defs>
  <title>ui-preview-svg</title>
  <path id="column-BG" class="cls-1" d="M0,23.46H111.7a0,0,0,0,1,0,0V79.12a2.27,2.27,0,0,1-2.27,2.27H2.27A2.27,2.27,0,0,1,0,79.12V23.46A0,0,0,0,1,0,23.46Z"/>
  <path id="menu-BG-Hover" class="cls-2" d="M2,0H109.7a2,2,0,0,1,2,2V23.46a0,0,0,0,1,0,0H0a0,0,0,0,1,0,0V2A2,2,0,0,1,2,0Z"/>
  <rect id="R-00-name" class="cls-3" x="18.14" y="71.36" width="68.98" height="4.55" rx="2.27"/>
  <path id="R-05-_" data-name="R-05-#" class="cls-3" d="M12,73.91l-.14,1h-.83l-.23,1.48H9.74L10,74.86H9.29l-.24,1.48H8l.24-1.48H7.39l.15-1h.82l.11-.67H7.65l.15-.95h.82l.22-1.37H9.91l-.22,1.37h.69l.22-1.37h1.08l-.22,1.37h.81l-.14.95h-.82l-.1.67Zm-1.8-.67H9.54l-.11.67h.7Z"/>
  <rect id="R-04-active-item" class="cls-4" y="58.23" width="111.7" height="8.91"/>
  <rect id="R-04-name" class="cls-5" x="18.14" y="60.46" width="60.98" height="4.55" rx="2.27"/>
  <path id="R-04-_" data-name="R-04-#" class="cls-5" d="M12,62.69l-.14,1h-.83l-.23,1.48H9.74L10,63.64H9.29l-.24,1.48H8l.24-1.48H7.39l.15-1h.82L8.47,62H7.65l.15-.94h.82l.22-1.38H9.91l-.22,1.38h.69l.22-1.38h1.08l-.22,1.38h.81l-.14.94h-.82l-.1.68ZM10.23,62H9.54l-.11.68h.7Z"/>
  <rect id="R-03-name" class="cls-3" x="18.04" y="49.56" width="67.98" height="4.55" rx="2.27"/>
  <circle id="R-03active-presense" class="cls-6" cx="9.67" cy="51.62" r="2.27"/>
  <rect id="R-02-hover-item" class="cls-7" y="36.38" width="111.7" height="8.91"/>
  <rect id="R-02-name" class="cls-3" x="18.14" y="38.67" width="57.98" height="4.55" rx="2.27"/>
  <path id="R-02-_" data-name="R-02-#" class="cls-3" d="M12,41.11l-.14,1h-.83l-.23,1.48H9.74L10,42.06H9.29l-.24,1.48H8l.24-1.48H7.39l.15-1h.82l.11-.67H7.65l.15-.95h.82l.22-1.37H9.91l-.22,1.37h.69l.22-1.37h1.08l-.22,1.37h.81l-.14.95h-.82l-.1.67Zm-1.8-.67H9.54l-.11.67h.7Z"/>
  <rect id="R-01-name" class="cls-3" x="18.14" y="27.77" width="60.98" height="4.55" rx="2.27"/>
  <path id="R-01-_" data-name="R-01-#" class="cls-3" d="M12,30.32l-.14.95h-.83l-.23,1.49H9.74L10,31.27H9.29l-.24,1.49H8l.24-1.49H7.39l.15-.95h.82l.11-.67H7.65l.15-.94h.82l.22-1.38H9.91l-.22,1.38h.69l.22-1.38h1.08l-.22,1.38h.81l-.14.94h-.82l-.1.67Zm-1.8-.67H9.54l-.11.67h.7Z"/>
  <rect id="active-badge" class="cls-8" x="92.42" y="26.26" width="14.4" height="6.77" rx="3.39"/>
  <rect id="user-name" class="cls-3" x="7.34" y="15.92" width="50.51" height="4.55" rx="2.27"/>
  <rect id="slack-team" class="cls-3" x="7.34" y="3.92" width="30.51" height="8.58" rx="2.27"/>
</svg>
